<?xml version="1.0" encoding="UTF-8"?>
<svg version="1.1" xmlns="http://www.w3.org/2000/svg" width="1640" height="959">
<path d="M0 0 C541.2 0 1082.4 0 1640 0 C1640 316.47 1640 632.94 1640 959 C1098.8 959 557.6 959 0 959 C0 642.53 0 326.06 0 0 Z " fill="#CBA384" transform="translate(0,0)"/>
<path d="M0 0 C0.66 0 1.32 0 2 0 C2.10022461 1.09948975 2.20044922 2.19897949 2.30371094 3.33178711 C4.27745084 24.89505047 6.42330231 46.4081776 9.12179565 67.89413452 C10.66118781 80.21559965 12.07160474 92.55305044 13.51361084 104.88619995 C13.88619365 108.07132569 14.2593514 111.25638338 14.6328125 114.44140625 C14.75091278 115.45029404 14.86901306 116.45918182 14.99069214 117.49864197 C15.81838474 124.5395427 16.6938353 131.57299728 17.61474609 138.60229492 C18.03645079 142.32147383 18.28596458 146.01320506 18.5 149.75 C18.88103464 156.26915636 19.7705284 162.59003641 21 169 C21.65226563 168.28199219 22.30453125 167.56398437 22.9765625 166.82421875 C26.3534463 163.45325931 30.27921183 161.21034241 34.375 158.8125 C40.29815553 155.27076353 46.14851032 151.66512462 51.875 147.8125 C52.49270264 147.39693848 53.11040527 146.98137695 53.74682617 146.55322266 C54.94441894 145.74522754 56.14130448 144.93618298 57.33740234 144.12597656 C68.45654463 136.59565582 79.7189061 129.28443119 91 122 C91.9811377 121.36562012 92.96227539 120.73124023 93.97314453 120.07763672 C96.95796972 118.1507486 99.94704318 116.23063386 102.9375 114.3125 C103.86675293 113.71228027 104.79600586 113.11206055 105.75341797 112.49365234 C106.62756348 111.93500488 107.50170898 111.37635742 108.40234375 110.80078125 C109.17054443 110.30747314 109.93874512 109.81416504 110.73022461 109.3059082 C113.08862705 107.9490087 115.45333982 106.94948304 118 106 C118 105.34 118 104.68 118 104 C118.66 104 119.32 104 120 104 C118.33919326 108.14698411 115.34002267 111.06694758 112.3125 114.25 C111.21414351 115.42252152 110.11648276 116.59569519 109.01953125 117.76953125 C108.49311035 118.3310791 107.96668945 118.89262695 107.42431641 119.47119141 C102.03213939 125.25895494 96.97471621 131.35837294 91.83081055 137.3659668 C76.26110718 155.54387872 76.26110718 155.54387872 69.25 163.25 C63.20266761 169.92099835 57.62159612 176.97098902 52 184 C53.09199707 184.01458252 54.18399414 184.02916504 55.30908203 184.04418945 C118.59855256 184.94810777 185.12944155 187.66354267 246.96923828 202.31298828 C251.08040494 203.24490571 255.20890315 203.93047992 259.375 204.5625 C264.73640347 205.37836575 269.78416045 206.47288821 275 208 C279.40864031 209.09587942 283.83060516 210.13595763 288.25 211.1875 C292.21654503 212.14212473 296.18120694 213.1045207 300.14599609 214.06640625 C302.56741613 214.65297094 304.98952029 215.23672599 307.41259766 215.81640625 C336.70392537 222.86154807 364.99915739 232.95631532 393.04638672 243.86474609 C395.61653866 244.8526124 398.19363645 245.80829394 400.78515625 246.73828125 C408.90114662 249.6515676 416.54317449 253.09705203 424.18359375 257.0703125 C426.7636605 258.40132576 429.36512399 259.61978916 432.02734375 260.77734375 C438.8366163 263.76603881 445.47391954 267.11570952 452.125 270.4375 C452.82875763 270.78870911 453.53251526 271.13991821 454.25759888 271.50177002 C467.08573362 277.91846942 479.61217152 284.76744598 492 292 C493.52952847 292.880937 495.05945846 293.76117733 496.58984375 294.640625 C534.27551811 316.40873751 569.81214826 342.72867518 602 372 C603.54163116 373.3750398 605.08329889 374.75003861 606.625 376.125 C618.6480893 386.98152978 630.20365724 398.07343398 641.16210938 410.00927734 C643.00530125 412.00574209 644.86631643 413.98383326 646.734375 415.95703125 C652.6608079 422.22466152 658.41939815 428.53082812 663.8046875 435.27734375 C665.80001671 437.75197801 667.85033715 440.16907707 669.92626953 442.57617188 C676.08257576 449.732146 681.77140487 457.18390536 687.3671875 464.78320312 C689.11489968 467.15599418 690.86963748 469.52348889 692.625 471.890625 C708.34784861 493.12290591 708.34784861 493.12290591 713 501 C709.21794109 499.7393137 708.30203178 498.13165391 705.875 495 C702.20074212 490.38928353 698.33617215 486.22277668 694.1171875 482.11328125 C692.14350902 480.14324424 690.31272114 478.11762585 688.5 476 C682.8699436 469.45977282 676.7116148 463.55377363 670.1640625 457.9453125 C667.51023588 455.55974272 665.00521972 453.03902778 662.5 450.5 C658.8185361 446.77400732 655.06704852 443.20143753 651.08203125 439.80078125 C648.56846422 437.62675798 646.13223771 435.37609512 643.6875 433.125 C639.20337072 429.03562213 634.59732762 425.15380979 629.875 421.34375 C627.30633511 419.24972971 624.7794597 417.11800365 622.26220703 414.96313477 C615.93025593 409.54613455 609.43226874 404.38817808 602.78808594 399.35839844 C600.87593895 397.90575154 598.97247624 396.44225503 597.0703125 394.9765625 C592.72741121 391.63267708 588.36857125 388.31026949 584 385 C583.26539551 384.44296387 582.53079102 383.88592773 581.77392578 383.31201172 C532.79902526 346.32180877 478.25690228 315.54970301 421.8125 291.5625 C421.1368399 291.27494843 420.46117981 290.98739685 419.76504517 290.69113159 C409.93946268 286.52317103 400.01204325 282.69472544 390 279 C388.58115475 278.46891799 387.16261634 277.9370155 385.74438477 277.40429688 C377.80074662 274.42510886 369.81311916 271.57671684 361.75 268.9375 C358.15613827 267.75848607 354.66973634 266.47435707 351.1875 265 C346.59367195 263.11871804 341.93024811 261.85439451 337.12353516 260.63183594 C332.9591455 259.55945218 328.87957911 258.33750337 324.79711914 256.98754883 C310.81824021 252.37373989 296.51530497 248.98444534 282.21374512 245.53582764 C279.86685871 244.96777371 277.52185836 244.39227344 275.17675781 243.81689453 C261.6846736 240.52937665 248.12129235 237.69665107 234.5 235 C233.40604919 234.78245056 232.31209839 234.56490112 231.18499756 234.34075928 C214.16608953 230.95955419 197.14571655 227.67975208 180 225 C178.90381348 224.82807129 177.80762695 224.65614258 176.67822266 224.47900391 C160.41119469 221.9649873 144.0940352 220.03721751 127.72827148 218.30639648 C126.97791122 218.22624298 126.22755096 218.14608948 125.45445251 218.06350708 C123.4080556 217.84553778 121.36126595 217.63126482 119.31445312 217.41723633 C116.76817811 217.09670127 114.46436608 216.66447022 112 216 C107.72742692 215.55516913 103.44878176 215.30999071 99.15917969 215.10400391 C97.74277643 215.03577824 96.32670494 214.96018147 94.91113281 214.87646484 C78.84107955 213.99452591 62.930633 217.01018135 48 223 C49.11733567 224.32048761 50.2346784 225.64096924 51.35205078 226.96142578 C52.33882078 228.12766849 53.32547138 229.29401223 54.31201172 230.46044922 C56.8263791 233.43298668 59.34230454 236.40415862 61.86328125 239.37109375 C67.65109569 246.18758192 73.3644964 253.05650298 79 260 C78.0653305 258.41499412 77.12713737 256.83206584 76.1875 255.25 C75.40439453 253.92742187 75.40439453 253.92742187 74.60546875 252.578125 C73.17453304 250.28027203 71.66105577 248.13493054 70 246 C70.33 245.34 70.66 244.68 71 244 C76.83997254 250.3032689 82.45190825 256.69481969 87.8515625 263.3828125 C89.84596296 265.81235488 91.89706981 268.16433445 94 270.5 C96.82325796 273.63941848 99.53048119 276.84365436 102.1875 280.125 C107.9508123 287.23308517 113.98191878 294.10757623 120 301 C115.63718941 301 112.88608419 298.53868296 109.375 296.1875 C107.81132609 295.1573575 106.24752082 294.12741437 104.68359375 293.09765625 C103.89194824 292.57316895 103.10030273 292.04868164 102.28466797 291.50830078 C99.65448345 289.77189557 97.0075175 288.06314741 94.35644531 286.35888672 C88.0393538 282.2969808 81.75466534 278.18633088 75.48046875 274.05859375 C57.74336701 262.36560812 57.74336701 262.36560812 39.875 250.875 C38.77696045 250.17612671 38.77696045 250.17612671 37.65673828 249.46313477 C33.86485648 247.07698171 30.05126415 244.93097637 26 243 C25.90203125 243.7321875 25.8040625 244.464375 25.703125 245.21875 C24.63047804 252.98619347 23.38240849 260.70882678 22.0625 268.4375 C20.54709541 277.3324784 19.23383753 286.22884939 18.21508789 295.19506836 C17.48715642 301.24466801 16.40502863 307.18540809 15.23046875 313.16015625 C12.47949099 327.23704083 10.33931421 341.41320647 8.14801025 355.58532715 C7.69691905 358.49571475 7.24167774 361.40544704 6.78639698 364.31518173 C6.34300409 367.15126533 5.9016455 369.98766251 5.46094322 372.82416534 C5.15324966 374.80329686 4.84432014 376.78223609 4.53535461 378.76116943 C3.5467687 385.16548107 2.65249909 391.55249067 2 398 C1.34 398 0.68 398 0 398 C-0.16081055 396.79802979 -0.32162109 395.59605957 -0.48730469 394.35766602 C-4.24901342 365.95244374 -4.24901342 365.95244374 -8.60058594 337.63378906 C-9.85580573 330.04244942 -10.94081956 322.43346994 -12 314.8125 C-13.30107255 305.48379068 -14.80794188 296.2281616 -16.56591797 286.9753418 C-17.96826764 279.48479318 -19.02656595 271.9672311 -19.96118164 264.40478516 C-20.46473997 260.43556066 -21.04380527 256.60851638 -22.0859375 252.7421875 C-22.92367655 249.31246951 -23.17533241 246.50664812 -23 243 C-33.43417304 248.78730642 -43.51944066 255.04017749 -53.57519531 261.45751953 C-55.88574558 262.92731983 -58.2028021 264.38603095 -60.5234375 265.83984375 C-69.2397705 271.30451706 -77.88641493 276.86730159 -86.48825073 282.51046753 C-103.3512386 293.57085042 -103.3512386 293.57085042 -110.5 298.125 C-111.14606201 298.54475098 -111.79212402 298.96450195 -112.45776367 299.39697266 C-113.9337226 300.32801565 -115.46226307 301.17497822 -117 302 C-117.66 301.67 -118.32 301.34 -119 301 C-118.14277344 300.0821875 -117.28554688 299.164375 -116.40234375 298.21875 C-111.14340952 292.57807549 -105.89635369 286.94293798 -100.85546875 281.10546875 C-96.8428387 276.55218959 -92.67955379 272.13214944 -88.55517578 267.68017578 C-82.56316959 261.20655151 -76.58736912 254.72427949 -70.80859375 248.05859375 C-67.73254665 244.55734791 -64.5749502 241.13008241 -61.43359375 237.6875 C-58.73885193 234.71160534 -56.09428737 231.69656914 -53.47265625 228.65625 C-52.0365188 227.04107155 -50.54400223 225.51173949 -49 224 C-54.65056688 222.59093459 -60.31651851 221.26956594 -66 220 C-66.69448242 219.84031738 -67.38896484 219.68063477 -68.10449219 219.51611328 C-93.7644556 213.78277357 -122.09936357 216.18832422 -147.64233398 221.54003906 C-150.67113511 222.13093285 -153.7063094 222.51061977 -156.76806641 222.88574219 C-206.82509229 229.12897972 -264.89175922 243.94060173 -310.046875 267.04296875 C-313.51232764 268.80597653 -317.00133444 270.12246028 -320.6875 271.375 C-332.79427298 275.70867442 -344.24882462 281.71955138 -355.76367188 287.40527344 C-358.35248607 288.68093233 -360.94628582 289.94394715 -363.546875 291.1953125 C-397.78849566 307.78164513 -432.85440892 328.7960645 -459.4453125 356.4453125 C-461.13544042 358.13544042 -462.91944649 359.65101131 -464.75 361.1875 C-468.8146168 364.6770838 -472.34625318 368.5927835 -475.91064453 372.57666016 C-479.22226537 376.24554167 -482.68698012 379.50812895 -486.5390625 382.59765625 C-488.27349428 384.04478356 -488.27349428 384.04478356 -489 387 C-489.59683594 387.01417969 -490.19367188 387.02835937 -490.80859375 387.04296875 C-499.0530162 387.49622823 -506.52513534 389.70904772 -514.33886719 392.16845703 C-517.34805009 393.10875767 -520.36477847 394.02210996 -523.3828125 394.93359375 C-537.1875141 399.11577929 -550.79994357 403.48696074 -564.18798828 408.87060547 C-566.10910631 409.64218838 -568.0320488 410.40924016 -569.95654297 411.17236328 C-599.41377881 422.88272772 -628.00661885 436.32182029 -655 453 C-655.83869629 453.51369141 -656.67739258 454.02738281 -657.54150391 454.55664062 C-669.62863458 461.97801977 -681.37212588 469.88137968 -693 478 C-693.94866943 478.66080566 -693.94866943 478.66080566 -694.91650391 479.33496094 C-704.83372727 486.26376548 -714.44034896 493.58825935 -724 501 C-724.68288086 501.52899902 -725.36576172 502.05799805 -726.06933594 502.60302734 C-728.00726517 504.10691674 -729.94200091 505.61478067 -731.875 507.125 C-732.45185547 507.57415771 -733.02871094 508.02331543 -733.62304688 508.48608398 C-735.77447289 510.17588768 -737.84702433 511.84294498 -739.7578125 513.8046875 C-741 515 -741 515 -743 515 C-732.86952996 480.19419513 -703.96067244 446.5794866 -680.48974609 419.71630859 C-678.92357018 417.91194664 -677.37591 416.09299894 -675.83203125 414.26953125 C-666.65878598 403.44501693 -666.65878598 403.44501693 -661.68603516 398.68896484 C-659.94784108 396.94775045 -658.36540973 395.12926744 -656.7734375 393.25390625 C-653.22154692 389.17032906 -649.41860407 385.47294513 -645.4375 381.8125 C-644.02213255 380.50130517 -642.60676802 379.1901072 -641.19140625 377.87890625 C-640.13590576 376.9046167 -640.13590576 376.9046167 -639.05908203 375.91064453 C-637.13954186 374.12948241 -635.2365718 372.33273825 -633.33984375 370.52734375 C-626.17270428 363.72823845 -618.76546823 357.46263233 -610.91308594 351.47167969 C-608.86721667 349.89785376 -606.84262612 348.29928024 -604.8203125 346.6953125 C-593.84616392 338.01623533 -582.55294414 329.88939991 -571 322 C-570.30745117 321.52546387 -569.61490234 321.05092773 -568.90136719 320.56201172 C-559.8080806 314.34894146 -550.52675686 308.52416647 -541 303 C-539.77893555 302.29085449 -539.77893555 302.29085449 -538.53320312 301.56738281 C-522.94076142 292.54958116 -507.05742877 284.15498348 -491 276 C-489.35112793 275.16239136 -489.35112793 275.16239136 -487.66894531 274.30786133 C-486.60385742 273.77056396 -485.53876953 273.2332666 -484.44140625 272.6796875 C-483.4882251 272.19870605 -482.53504395 271.71772461 -481.55297852 271.22216797 C-479.42816045 270.20496999 -477.34847903 269.33054767 -475.125 268.5625 C-471.40227097 267.26031083 -468.00200901 265.4977936 -464.5 263.6875 C-458.72389157 260.71511445 -452.86022866 258.33642641 -446.75415039 256.13183594 C-442.8870776 254.7297229 -439.1505812 253.20589624 -435.4375 251.4375 C-429.9723029 248.8661289 -424.32424151 247.03257869 -418.578125 245.2109375 C-415.65752354 244.22252434 -412.89985864 243.08631669 -410.08154297 241.84814453 C-405.29449007 239.89761418 -400.34485686 238.36644356 -395.4375 236.75 C-393.62958984 236.15348633 -393.62958984 236.15348633 -391.78515625 235.54492188 C-389.33241214 234.73727939 -386.87912806 233.93127482 -384.42529297 233.12695312 C-381.46806459 232.15399759 -378.51649992 231.16617613 -375.56640625 230.171875 C-358.62853639 224.53893124 -341.30710401 220.32303074 -324 216 C-322.55044137 215.63726441 -321.1008971 215.27447142 -319.65136719 214.91162109 C-315.76788425 213.93985387 -311.88396673 212.96983191 -308 212 C-307.30619232 211.82593628 -306.61238464 211.65187256 -305.89755249 211.47253418 C-293.04903355 208.25090453 -280.1373725 205.57027861 -267.08544922 203.30712891 C-266.19100098 203.15034668 -265.29655273 202.99356445 -264.375 202.83203125 C-263.57835937 202.69514893 -262.78171875 202.5582666 -261.9609375 202.41723633 C-259.93434514 202.07187164 -259.93434514 202.07187164 -258 201 C-256.64661455 200.74906726 -255.28553775 200.53876108 -253.921875 200.3515625 C-253.09848633 200.23490234 -252.27509766 200.11824219 -251.42675781 199.99804688 C-250.54342773 199.87494141 -249.66009766 199.75183594 -248.75 199.625 C-242.85731946 198.77932015 -237.04953491 197.86375202 -231.25 196.5 C-223.96167849 194.85369679 -216.61240742 193.99997371 -209.19677734 193.125 C-203.8605143 192.49284667 -198.55930702 191.79811274 -193.26220703 190.89518738 C-161.34715325 185.61184737 -128.99179882 185.58144873 -96.74304199 185.79400635 C-91.4446186 185.82543222 -86.14614716 185.83854981 -80.84765625 185.85351562 C-70.56498512 185.88510374 -60.28251636 185.93587302 -50 186 C-51.09180873 184.57931655 -52.1860373 183.16049261 -53.28125 181.74243164 C-53.89033203 180.95212051 -54.49941406 180.16180939 -55.12695312 179.34754944 C-57.90350413 175.86760943 -60.92644551 172.65410952 -64 169.4375 C-65.23396658 168.13105184 -66.46705088 166.82376974 -67.69921875 165.515625 C-68.27591309 164.90396484 -68.85260742 164.29230469 -69.44677734 163.66210938 C-71.81733763 161.12536394 -74.09799107 158.51719425 -76.36328125 155.88671875 C-78.37873772 153.56341213 -80.43848462 151.28251535 -82.5 149 C-87.32121275 143.65210014 -92.07894027 138.25697785 -96.75 132.77734375 C-97.77076468 131.5806706 -98.79159999 130.3840577 -99.8125 129.1875 C-100.32522461 128.58591064 -100.83794922 127.98432129 -101.36621094 127.36450195 C-105.44424593 122.59975454 -109.64948148 117.97616834 -113.94140625 113.40234375 C-115.95466299 111.05290752 -117.49518911 108.69712111 -119 106 C-114.97131743 107.44755528 -111.64748687 109.39387275 -108.08203125 111.75390625 C-107.51605728 112.12663666 -106.95008331 112.49936707 -106.36695862 112.88339233 C-104.51277229 114.10572551 -102.6627201 115.33417345 -100.8125 116.5625 C-99.51351356 117.41985236 -98.21419243 118.27669782 -96.91455078 119.13305664 C-94.24628536 120.89179812 -91.57937071 122.65255765 -88.91357422 124.41503906 C-83.0778072 128.27178547 -77.22801538 132.10698566 -71.375 135.9375 C-70.31152344 136.63399658 -69.24804688 137.33049316 -68.15234375 138.0480957 C-60.83283775 142.83108865 -53.4705034 147.54083499 -46.04638672 152.15991211 C-41.57330336 154.95365805 -37.26274536 157.89372684 -33 161 C-33.66 161.33 -34.32 161.66 -35 162 C-37.57094146 160.69650865 -40.02279316 159.33934342 -42.5 157.875 C-43.94685996 157.03853409 -45.3947774 156.20389466 -46.84375 155.37109375 C-47.55144531 154.96358887 -48.25914062 154.55608398 -48.98828125 154.13623047 C-52.90740606 151.92268595 -56.94092117 149.94172281 -61 148 C-52.3732501 154.72933633 -44.41565288 160.33415569 -34 164 C-32.1425123 164.72066463 -30.28812453 165.44938964 -28.4375 166.1875 C-27.65246094 166.49042969 -26.86742187 166.79335937 -26.05859375 167.10546875 C-24 168 -24 168 -21 170 C-21.01748291 168.68926514 -21.03496582 167.37853027 -21.05297852 166.02807617 C-21.05081446 161.4817181 -20.69544223 157.06074658 -20.15234375 152.55078125 C-20.06282944 151.77865799 -19.97331512 151.00653473 -19.88108826 150.21101379 C-18.89557365 141.85333939 -17.74138291 133.51968999 -16.5625 125.1875 C-16.33904856 123.59280502 -16.11582558 121.99807802 -15.89282227 120.40332031 C-14.87537641 113.13998401 -13.84095367 105.87937285 -12.78295898 98.62182617 C-12.66895752 97.83912354 -12.55495605 97.0564209 -12.4375 96.25 C-12.32414307 95.47180908 -12.21078613 94.69361816 -12.09399414 93.8918457 C-10.84915892 85.19372338 -9.80785391 76.46946118 -8.73947144 67.74832153 C-7.7926628 60.03732033 -6.80281338 52.34746884 -5.5 44.6875 C-2.99092166 29.89815999 -1.63620131 14.90580647 0 0 Z " fill="#FDFCFB" transform="translate(819,88)"/>
<path d="M0 0 C0.09356628 21.84484357 0.16403941 43.68965396 0.20724869 65.53465748 C0.22784747 75.67836531 0.25591665 85.82194841 0.30175781 95.96557617 C0.34170786 104.8098707 0.36745232 113.65407487 0.37635398 122.49845713 C0.38155491 127.17870474 0.39372278 131.85869389 0.42292023 136.53885841 C0.45021857 140.95065836 0.45841607 145.36209517 0.45243073 149.77397156 C0.45352455 151.38676621 0.46139222 152.99957394 0.4768219 154.61229515 C0.57661966 165.58841576 -0.25842625 176.38959312 -7.25390625 185.43359375 C-14.68289573 192.09807872 -23.82450755 194.11567262 -33.50109673 194.1386652 C-34.79841598 194.14413964 -36.09573524 194.14961409 -37.43236721 194.15525442 C-38.8649761 194.1563305 -40.29758507 194.15731522 -41.73019409 194.15821838 C-43.25742507 194.16278631 -44.78465481 194.16778667 -46.31188309 194.17318195 C-50.50550501 194.1867462 -54.69911884 194.19417646 -58.89275694 194.20060861 C-63.41622076 194.20862007 -67.93966778 194.22231529 -72.46311951 194.23532104 C-80.2992996 194.25707319 -88.13548141 194.2752223 -95.97167587 194.29092598 C-107.30150552 194.31363608 -118.63131655 194.34177734 -129.9611304 194.37124526 C-148.34289381 194.41890717 -166.72466485 194.46217516 -185.10644531 194.50268555 C-202.96289665 194.5420476 -220.81934123 194.58347553 -238.67578125 194.62768555 C-239.77640628 194.63040982 -240.8770313 194.63313409 -242.01100861 194.63594092 C-247.53250718 194.64962051 -253.05400564 194.66334076 -258.57550406 194.67708123 C-304.38365527 194.791024 -350.19182111 194.89783823 -396 195 C-394.22105352 191.31143318 -392.0189353 188.06137718 -389.625 184.75 C-389.1923584 184.14736328 -388.7597168 183.54472656 -388.31396484 182.92382812 C-384.32453771 177.39325656 -380.23516091 171.93810159 -376.11181641 166.50683594 C-375.63405762 165.87551758 -375.15629883 165.24419922 -374.6640625 164.59375 C-374.24592285 164.04396484 -373.8277832 163.49417969 -373.39697266 162.92773438 C-371.83642356 160.90053449 -371.83642356 160.90053449 -370.5549202 157.92461205 C-367.75388306 154.71827043 -367.45134347 154.56089446 -363.47852707 154.26171303 C-361.56061111 154.23644284 -359.64208914 154.24469264 -357.7243042 154.2784729 C-356.66732999 154.27334635 -355.61035578 154.2682198 -354.52135205 154.2629379 C-350.96772201 154.25302843 -347.41577899 154.28609924 -343.86230469 154.31884766 C-341.31987549 154.32053949 -338.77744336 154.3195913 -336.23501587 154.31619263 C-330.75530152 154.31482485 -325.27613368 154.33187808 -319.79653168 154.36561966 C-311.87406597 154.41437185 -303.95180755 154.43000721 -296.02920809 154.43754761 C-283.17560459 154.45068106 -270.32222948 154.49061505 -257.46875 154.54736328 C-244.98243351 154.60243318 -232.49617903 154.64490574 -220.00976562 154.67041016 C-218.85537468 154.67277467 -218.85537468 154.67277467 -217.6776627 154.67518695 C-213.81685525 154.68301714 -209.95604735 154.6905994 -206.09523916 154.69805837 C-174.06331997 154.76026393 -142.03170802 154.86759787 -110 155 C-110 148.4 -110 141.8 -110 135 C-161.81 135 -213.62 135 -267 135 C-267 126.42 -267 117.84 -267 109 C-250.42466034 100.54657677 -233.50856568 92.83612209 -216.609375 85.05859375 C-193.77730561 74.54657809 -171.00860067 63.89172938 -148.35229492 53.00537109 C-144.99046456 51.39513425 -141.62705287 49.81944604 -138.1953125 48.36328125 C-135.75099371 47.32041174 -133.41137875 46.23354683 -131.0625 45 C-128.35761166 43.62134567 -125.66965072 42.46328156 -122.8125 41.4375 C-119.60671893 40.28366829 -116.90761056 38.78929881 -114 37 C-109.39496463 34.86803918 -104.88645375 33.2964061 -100 32 C-101.43420767 35.70613168 -103.0515284 39.27622455 -104.78515625 42.8515625 C-105.31560547 43.94984375 -105.84605469 45.048125 -106.39257812 46.1796875 C-107.5096688 48.48442194 -108.62685696 50.78910912 -109.74414062 53.09375 C-110.27330078 54.18945312 -110.80246094 55.28515625 -111.34765625 56.4140625 C-111.83242432 57.4138916 -112.31719238 58.4137207 -112.81665039 59.44384766 C-114.07295903 62.03290942 -114.07295903 62.03290942 -115 65 C-117.16015625 66.29589844 -117.16015625 66.29589844 -120.0625 67.609375 C-121.15304687 68.10920898 -122.24359375 68.60904297 -123.3671875 69.12402344 C-124.56601563 69.6605957 -125.76484375 70.19716797 -127 70.75 C-128.25303047 71.31970132 -129.5056267 71.89035859 -130.7578125 72.46191406 C-133.43356679 73.68103129 -136.11211832 74.89369378 -138.79296875 76.1015625 C-143.03450065 78.01326669 -147.26782569 79.94268604 -151.5 81.875 C-157.76964849 84.73611101 -164.04478652 87.58485917 -170.32351685 90.42597961 C-174.36428341 92.25547445 -178.39895132 94.09769132 -182.4296875 95.94921875 C-183.36554688 96.37686523 -184.30140625 96.80451172 -185.265625 97.24511719 C-186.9472969 98.01357579 -188.62713829 98.78605926 -190.3046875 99.56347656 C-195.6607351 102 -195.6607351 102 -199 102 C-199 102.66 -199 103.32 -199 104 C-198.44138558 103.99631283 -197.88277117 103.99262566 -197.30722904 103.98882675 C-183.68476209 103.90030458 -170.06234587 103.83446324 -156.43965244 103.79275131 C-149.85166752 103.77189971 -143.26389061 103.74362569 -136.67602539 103.69824219 C-130.31530151 103.65469895 -123.95477739 103.63084463 -117.59391594 103.62049103 C-115.17028599 103.61311497 -112.74666666 103.59871128 -110.32312202 103.57707977 C-106.92163816 103.54793412 -103.52097393 103.5440488 -100.11938477 103.54589844 C-99.12316101 103.53151733 -98.12693726 103.51713623 -97.1005249 103.50231934 C-90.65652276 103.54009763 -85.57450934 104.66609815 -80 108 C-76.80386512 111.29601409 -75.87218503 114.48265328 -75.88647461 119.01245117 C-75.88655014 119.81305466 -75.88662567 120.61365814 -75.88670349 121.43852234 C-75.89186478 122.29798965 -75.89702606 123.15745697 -75.90234375 124.04296875 C-75.90446617 125.36836418 -75.90446617 125.36836418 -75.90663147 126.72053528 C-75.91222931 129.54289128 -75.92478139 132.36516797 -75.9375 135.1875 C-75.94251528 137.10091031 -75.94707814 139.01432187 -75.95117188 140.92773438 C-75.96134717 145.61854473 -75.98092302 150.30918358 -76 155 C-63.13 155 -50.26 155 -37 155 C-37.04713135 151.22498047 -37.0942627 147.44996094 -37.14282227 143.56054688 C-37.29199292 131.08371656 -37.39183762 118.60689969 -37.46630955 106.12941742 C-37.51266268 98.56465615 -37.57582326 91.0007413 -37.67895508 83.43652344 C-37.76883243 76.84129651 -37.82676365 70.24668265 -37.84679645 63.65086031 C-37.8585026 60.15997675 -37.8858857 56.67084656 -37.95157051 53.18052673 C-38.02440859 49.2782273 -38.02589844 45.37762233 -38.02172852 41.47460938 C-38.054086 40.32517853 -38.08644348 39.17574768 -38.11978149 37.9914856 C-38.06629839 33.3608541 -37.99836203 30.25342233 -35.05018425 26.55204773 C-32.78787661 24.51802638 -30.49180116 22.74120889 -28 21 C-26.83229809 20.06241085 -25.66934122 19.11880858 -24.515625 18.1640625 C-23.42961578 17.31446123 -22.34105576 16.4681107 -21.25 15.625 C-20.66581299 15.17020264 -20.08162598 14.71540527 -19.47973633 14.24682617 C-18.2677749 13.3044786 -17.05464036 12.36363782 -15.84033203 11.42431641 C-13.97225202 9.97852458 -12.10897902 8.52669547 -10.24609375 7.07421875 C-9.06017138 6.15329089 -7.87398365 5.23270462 -6.6875 4.3125 C-5.8517041 3.66112061 -5.8517041 3.66112061 -4.99902344 2.99658203 C-1.11533566 0 -1.11533566 0 0 0 Z " fill="#FDFCFC" transform="translate(1249,567)"/>
<path d="M0 0 C1.47196229 -0.00473092 2.94391919 -0.01153737 4.41586304 -0.02029419 C7.49082862 -0.03056195 10.56436246 -0.01580373 13.63916016 0.01708984 C17.53332669 0.05677046 21.42412485 0.03348027 25.31817245 -0.00700855 C43.77455097 -0.1699816 59.42251081 -0.19369374 74.2109375 12.3671875 C75.72770724 13.8712964 77.22888726 15.39135687 78.7109375 16.9296875 C79.39285156 17.56648437 80.07476562 18.20328125 80.77734375 18.859375 C86.54031213 24.29528647 91.08035809 30.5363826 95.7109375 36.9296875 C96.70810515 38.2651404 97.70688792 39.59940099 98.7109375 40.9296875 C97.24647817 44.45062163 95.34147037 46.23025479 92.4609375 48.6796875 C87.66569897 53.3140634 85.94864185 57.81900201 83.87768555 63.97119141 C79.30216503 77.32787085 70.04680024 85.5861199 57.7109375 91.9296875 C55.41015625 92.59765625 55.41015625 92.59765625 53.7109375 92.9296875 C55.24633778 97.58000902 57.92344859 101.12956404 60.8359375 104.9921875 C65.63711033 111.45810636 70.15479531 118.0643332 74.55859375 124.8046875 C75.07681702 125.59491806 75.59504028 126.38514862 76.12896729 127.19932556 C78.24225855 130.42319782 80.3551488 133.64684577 82.43927002 136.88967896 C88.40601258 146.17099829 93.95761067 154.06286214 102.7109375 160.9296875 C103.68289063 161.785625 104.65484375 162.6415625 105.65625 163.5234375 C107.134455 164.8162046 108.61365454 166.10783523 110.09375 167.3984375 C110.62742187 167.90375 111.16109375 168.4090625 111.7109375 168.9296875 C111.7109375 169.2596875 111.7109375 169.5896875 111.7109375 169.9296875 C86.6309375 169.9296875 61.5509375 169.9296875 35.7109375 169.9296875 C39.77160878 163.83868058 43.53365504 158.60757407 48.26953125 153.19140625 C49.92413203 151.11721531 49.92413203 151.11721531 49.50830078 149.11450195 C48.49470889 146.33721053 47.05145573 144.16100345 45.39453125 141.7109375 C44.37069336 140.18726563 44.37069336 140.18726563 43.32617188 138.6328125 C42.60751953 137.57578125 41.88886719 136.51875 41.1484375 135.4296875 C39.75130208 133.35677083 38.35416667 131.28385417 36.95703125 129.2109375 C35.89452148 127.64085937 35.89452148 127.64085937 34.81054688 126.0390625 C32.15979391 122.1134823 29.53397768 118.17164069 26.90942383 114.22851562 C24.82242207 111.09697006 22.73004234 107.96910338 20.63578796 104.84240723 C18.69501316 101.94425985 16.7563632 99.04469409 14.81787109 96.14501953 C13.81997508 94.65327185 12.82126107 93.16207108 11.82177734 91.67138672 C10.35818061 89.48809726 8.89755728 87.302845 7.4375 85.1171875 C6.99169586 84.45364258 6.54589172 83.79009766 6.08657837 83.10644531 C4.09968765 80.12647131 2.19474341 77.19550008 0.7109375 73.9296875 C1.76482666 73.91510498 2.81871582 73.90052246 3.90454102 73.88549805 C7.83911963 73.82723805 11.77314243 73.75000846 15.70727539 73.66723633 C17.40542536 73.63411667 19.10368198 73.60604489 20.80200195 73.58325195 C23.25257537 73.54946581 25.70218281 73.49714111 28.15234375 73.44140625 C28.90367081 73.43501633 29.65499786 73.4286264 30.42909241 73.42204285 C35.55253741 73.28123238 39.11010208 72.20039141 43.7109375 69.9296875 C44.7215625 69.4553125 45.7321875 68.9809375 46.7734375 68.4921875 C51.71746272 64.17931444 54.83629048 58.08248313 56.19140625 51.6484375 C56.39918641 46.66171355 54.6292001 42.41225968 52.7109375 37.9296875 C52.3809375 36.9396875 52.0509375 35.9496875 51.7109375 34.9296875 C49.86217907 33.81635797 49.86217907 33.81635797 47.7109375 32.9296875 C47.10373367 32.58223984 46.49652985 32.23479218 45.8709259 31.8768158 C40.84505606 29.08696471 36.86246352 28.3466454 31.16015625 28.43359375 C29.98922173 28.4314109 29.98922173 28.4314109 28.79463196 28.42918396 C27.16016876 28.43083147 25.52568817 28.44226271 23.89135742 28.46313477 C21.38719418 28.49231853 18.88512288 28.48367605 16.38085938 28.47070312 C14.78644805 28.47693493 13.19204336 28.48532149 11.59765625 28.49609375 C10.85078049 28.49315811 10.10390472 28.49022247 9.33439636 28.48719788 C5.43651675 28.50275501 5.43651675 28.50275501 2.02031994 30.15718651 C0.32470413 32.45252866 0.30254317 33.85222954 0.24250793 36.6937561 C0.21526138 37.67459671 0.18801483 38.65543732 0.15994263 39.66600037 C0.14559174 40.74124466 0.13124084 41.81648895 0.11645508 42.92431641 C0.09031631 44.05812241 0.06417755 45.19192841 0.0372467 46.36009216 C-0.04249637 50.12541079 -0.09687628 53.89039374 -0.14453125 57.65625 C-0.16175043 58.94515514 -0.17896961 60.23406029 -0.19671059 61.56202316 C-0.26510229 66.98871579 -0.32683366 72.41529512 -0.36445141 77.84229469 C-0.41859228 85.58368241 -0.52623802 93.31994622 -0.71069068 101.05935919 C-0.85152672 107.1810358 -0.90254202 113.30073735 -0.92391396 119.42393112 C-0.94577596 122.01155454 -0.99474125 124.59910846 -1.07243919 127.1856575 C-1.63905084 144.30486194 -1.63905084 144.30486194 6.5031004 158.77994347 C9.26555238 161.54151127 12.11087066 164.13240668 15.15513134 166.57985497 C16.7109375 167.9296875 16.7109375 167.9296875 17.7109375 169.9296875 C-5.0590625 169.9296875 -27.8290625 169.9296875 -51.2890625 169.9296875 C-51.2890625 169.2696875 -51.2890625 168.6096875 -51.2890625 167.9296875 C-50.268125 167.1253125 -50.268125 167.1253125 -49.2265625 166.3046875 C-46.14847779 163.81602327 -43.76722214 161.14465344 -41.23046875 158.125 C-39.2890625 155.9296875 -39.2890625 155.9296875 -36.22319031 153.43902588 C-32.13880794 149.33573588 -32.39500477 145.12795312 -32.40161133 139.58496094 C-32.37985336 138.55651566 -32.3580954 137.52807037 -32.3356781 136.46846008 C-32.27368384 133.0749144 -32.25700625 129.68313302 -32.24609375 126.2890625 C-32.22426445 123.92262084 -32.20168557 121.55618599 -32.1783905 119.1897583 C-32.13796907 114.23002906 -32.12283977 109.27092048 -32.12231445 104.31103516 C-32.11733893 97.96988855 -32.02510723 91.6333155 -31.91048145 85.29333115 C-31.83607241 80.40479427 -31.82091626 75.51735308 -31.82202721 70.62830353 C-31.81312769 68.29187646 -31.78311231 65.95542704 -31.73118019 63.61956024 C-30.88235726 50.60974701 -30.88235726 50.60974701 -36.10726929 39.35412598 C-39.22287514 36.70192497 -42.67379778 34.83469084 -46.2890625 32.9296875 C-49.20906067 30.82098389 -49.20906067 30.82098389 -51.2890625 28.9296875 C-51.2890625 28.2696875 -51.2890625 27.6096875 -51.2890625 26.9296875 C-49.44323434 25.52794565 -47.53355678 24.21006241 -45.6015625 22.9296875 C-39.76107626 19.00167263 -34.18303762 14.83567587 -28.65234375 10.484375 C-28.12432663 10.08927734 -27.59630951 9.69417969 -27.05229187 9.28710938 C-25.76796173 8.298368 -24.52526766 7.2548378 -23.31062317 6.18164062 C-15.91096286 0.1560761 -9.25754005 -0.10608606 0 0 Z " fill="#FDFCFB" transform="translate(281.2890625,579.0703125)"/>
<path d="M0 0 C0.81547806 -0.01929062 1.63095612 -0.03858124 2.47114563 -0.05845642 C6.23510858 -0.11681027 9.99888622 -0.16558922 13.76318359 -0.19628906 C15.73276458 -0.21772383 17.70225417 -0.25165048 19.67138672 -0.29882812 C33.83981215 -0.6347201 45.9493901 -0.22307863 57.18823242 9.61108398 C58.31265431 10.76891726 59.41648073 11.94717551 60.49682617 13.14624023 C61.05950195 13.72825195 61.62217773 14.31026367 62.2019043 14.90991211 C63.8448225 16.64101495 65.41877865 18.36416982 66.93432617 20.20874023 C67.80798828 21.1899585 68.68165039 22.17117676 69.58178711 23.18212891 C73.04303048 28.1180877 72.67077987 33.33208603 72.63354492 39.16967773 C72.64070023 40.31481842 72.64785553 41.45995911 72.65522766 42.63980103 C72.66299097 45.05535099 72.6580218 47.47097135 72.64111328 49.88647461 C72.62192096 53.56556917 72.66126515 57.24086779 72.70581055 60.91967773 C72.706101 63.27384663 72.70295864 65.62801897 72.69604492 67.98217773 C72.71896858 69.61852676 72.71896858 69.61852676 72.74235535 71.28793335 C72.62897369 78.78990414 70.91729554 83.55003412 65.93432617 89.20874023 C64.01018522 91.01261897 62.02154742 92.58534593 59.93432617 94.20874023 C57.47846871 96.7523069 56.75593883 98.76450244 56.05932617 102.14624023 C55.11410474 106.37610614 53.33928626 108.45234397 49.93432617 111.20874023 C46.83454989 113.07384426 44.49746454 113.47505372 40.8972168 113.53100586 C39.89517212 113.55022095 38.89312744 113.56943604 37.86071777 113.5892334 C36.78157104 113.59773315 35.70242432 113.60623291 34.59057617 113.61499023 C33.47050171 113.62639038 32.35042725 113.63779053 31.19641113 113.64953613 C28.8226295 113.66843002 26.44879548 113.6815017 24.07495117 113.68920898 C20.47503469 113.70852184 16.87745178 113.77052398 13.27807617 113.83374023 C-9.36107021 114.04723332 -9.36107021 114.04723332 -18.06567383 107.20874023 C-18.72857422 106.69698242 -19.39147461 106.18522461 -20.07446289 105.65795898 C-21.81856071 104.1746697 -23.37875305 102.6311563 -24.94067383 100.95874023 C-25.75435425 100.11666016 -25.75435425 100.11666016 -26.58447266 99.25756836 C-30.87175908 94.69791924 -34.37746605 89.88495592 -37.06567383 84.20874023 C-37.41041748 83.53174072 -37.75516113 82.85474121 -38.11035156 82.15722656 C-39.44914105 78.02521515 -39.39053505 74.13292953 -39.40161133 69.81420898 C-39.40826813 68.90802322 -39.41492493 68.00183746 -39.42178345 67.06819153 C-39.43188821 65.15436831 -39.43660114 63.24051002 -39.4362793 61.32666016 C-39.44064373 58.41631177 -39.47696179 55.5074916 -39.51489258 52.59741211 C-39.52076315 50.73218288 -39.52473093 48.8669465 -39.52661133 47.00170898 C-39.54816788 45.70912422 -39.54816788 45.70912422 -39.57015991 44.39042664 C-39.52640594 38.53029503 -38.3678516 34.1036766 -35.06567383 29.20874023 C-31.76108259 25.98099995 -28.25972339 23.69141966 -24.37817383 21.20874023 C-20.85092121 18.89066285 -18.87191962 17.10642853 -17.06567383 13.20874023 C-13.24289839 5.82682904 -8.99823086 0.19980578 0 0 Z " fill="#FDFCFC" transform="translate(435.065673828125,635.791259765625)"/>
<path d="M0 0 C0.13973936 13.64006137 0.24599415 27.27994917 0.31087303 40.92058372 C0.34203011 47.25623445 0.38421513 53.59139125 0.45263672 59.92675781 C0.51838906 66.05413206 0.55382314 72.18103475 0.56926346 78.30873489 C0.58025024 80.63286373 0.60170141 82.95697018 0.63438034 85.28089523 C0.93415924 107.50692761 -2.89601658 125.93221593 -18.50390625 142.671875 C-30.21211786 153.59221008 -42.84931724 156.59169607 -58.4375 156.3515625 C-72.76786324 155.73814048 -87.50063777 151.71950359 -101 147 C-101 146.34 -101 145.68 -101 145 C-100.03900391 144.72736328 -100.03900391 144.72736328 -99.05859375 144.44921875 C-94.58169856 143.14818364 -90.26243318 141.79270226 -86.0078125 139.86328125 C-83.39643514 138.7404906 -80.73068434 137.79258245 -78.0625 136.8125 C-61.04965026 130.2464808 -49.38272106 123.5740816 -39 108 C-51.21 108 -63.42 108 -76 108 C-76.04614363 101.65012346 -76.08589954 95.30083891 -76.10986328 88.95092773 C-76.11986317 86.7949831 -76.13346747 84.63905182 -76.15087891 82.4831543 C-76.17539347 79.36764204 -76.18654353 76.25231054 -76.1953125 73.13671875 C-76.21079636 71.71258919 -76.21079636 71.71258919 -76.22659302 70.25968933 C-76.22817454 60.62660374 -74.97655079 51.60637317 -70.5 43 C-70.1488916 42.31921387 -69.7977832 41.63842773 -69.43603516 40.93701172 C-58.96972004 21.52050854 -38.54234595 10.03441537 -18.0480957 3.7199707 C-5.39909023 0 -5.39909023 0 0 0 Z " fill="#FDFCFB" transform="translate(1370,648)"/>
<path d="M0 0 C1.16082596 0.00015106 2.32165192 0.00030212 3.51765442 0.00045776 C4.76052719 0.01078033 6.00339996 0.02110291 7.28393555 0.03173828 C9.20437935 0.03598312 9.20437935 0.03598312 11.16362 0.04031372 C14.55518505 0.04792298 17.9465768 0.06754785 21.33807373 0.08972168 C24.80372736 0.11023872 28.26941002 0.11943776 31.73510742 0.12939453 C38.52627573 0.14973346 45.31696913 0.18888614 52.1081543 0.22705078 C52.1081543 9.46705078 52.1081543 18.70705078 52.1081543 28.22705078 C48.71276367 28.25283203 45.31737305 28.27861328 41.8190918 28.30517578 C38.52262153 28.34361247 35.22630682 28.38876765 31.92993164 28.43457031 C29.64289809 28.4627573 27.35576752 28.48398309 25.06860352 28.49804688 C21.77659524 28.51950716 18.48575051 28.56617549 15.1940918 28.61767578 C13.66563126 28.61951874 13.66563126 28.61951874 12.10629272 28.62139893 C6.1271774 28.74414196 2.67381483 29.26790201 -1.8918457 33.22705078 C-8.25110172 40.44566572 -7.18169921 47.65066442 -7.24194336 56.82080078 C-7.25851401 58.67151454 -7.28581878 60.52216401 -7.32397461 62.37255859 C-7.37870486 65.04053951 -7.40060904 67.70702186 -7.4152832 70.37548828 C-7.43795258 71.20164642 -7.46062195 72.02780457 -7.48397827 72.8789978 C-7.4692136 76.88898873 -7.41422501 78.61378935 -4.7434082 81.74926758 C-1.4718386 83.44471371 0.58477373 83.72956087 4.2565918 83.72314453 C5.42706055 83.72378906 6.5975293 83.72443359 7.8034668 83.72509766 C9.01776367 83.70511719 10.23206055 83.68513672 11.4831543 83.66455078 C12.6897168 83.67164063 13.8962793 83.67873047 15.1394043 83.68603516 C25.16665794 83.61441192 30.95256822 81.55046026 38.7331543 75.35205078 C39.2797168 74.93052734 39.8262793 74.50900391 40.3894043 74.07470703 C43.08013532 71.96975716 45.47655778 69.85242076 47.8815918 67.40673828 C50.1081543 65.22705078 50.1081543 65.22705078 52.1081543 65.22705078 C53.48459912 91.50050852 53.48459912 91.50050852 47.08862305 99.21142578 C46.43506836 99.87658203 45.78151367 100.54173828 45.1081543 101.22705078 C44.56803711 101.89220703 44.02791992 102.55736328 43.47143555 103.24267578 C38.58542376 108.8740114 32.20279573 112.64221408 24.72937012 113.50012207 C18.96643906 113.85102591 13.20735697 113.80879444 7.43676758 113.71411133 C4.35155911 113.66444461 1.26794664 113.65260595 -1.81762695 113.64697266 C-3.79550839 113.63289296 -5.77337611 113.61669083 -7.7512207 113.59814453 C-8.66490417 113.59278183 -9.57858765 113.58741913 -10.5199585 113.58189392 C-17.52420756 113.45242272 -23.69081149 112.88122141 -29.1418457 108.03955078 C-29.78637695 107.48912109 -30.4309082 106.93869141 -31.0949707 106.37158203 C-35.18982875 101.48445797 -36.26726517 96.56523365 -36.2800293 90.31713867 C-36.28528625 89.66572403 -36.29054321 89.01430939 -36.29595947 88.34315491 C-36.30905231 86.21175417 -36.3004594 84.08111401 -36.2902832 81.94970703 C-36.29230728 80.45429849 -36.2952215 78.95889091 -36.29898071 77.46348572 C-36.30338975 74.33745883 -36.29702009 71.2116901 -36.28295898 68.08569336 C-36.26588256 64.09682394 -36.27570712 60.10856091 -36.29367638 56.11971378 C-36.30456559 53.03372202 -36.30104422 49.94787177 -36.293293 46.86187553 C-36.29130438 45.392002 -36.29370278 43.92211523 -36.30073166 42.45225716 C-36.34294754 31.14300834 -35.46463095 23.14208613 -27.4777832 14.60595703 C-19.7793163 7.52383265 -10.8483648 -0.04726956 0 0 Z " fill="#FDFBFB" transform="translate(694.891845703125,635.77294921875)"/>
<path d="M0 0 C0.06980874 13.67470286 0.12296719 27.34936265 0.15543652 41.02420807 C0.17102775 47.37541543 0.19214543 53.7265 0.22631836 60.07763672 C0.25914644 66.21793305 0.27690209 72.35811199 0.28463173 78.49848938 C0.29013342 80.82979681 0.30087563 83.16109852 0.31719017 85.49235535 C0.45871287 106.57208999 -0.10919805 127.91869638 -15 144.5 C-24.22988045 153.47128466 -36.58082372 156.48519275 -49.0625 156.32421875 C-57.14976621 155.65830298 -64.1145881 153.19112029 -71 149 C-72.54905623 148.36215332 -74.11228746 147.7577009 -75.6875 147.1875 C-81.18305629 145.06365343 -86.04528202 142.16258595 -91 139 C-88.80095615 136.52499431 -86.98440386 135.40825186 -83.859375 134.3515625 C-83.04307617 134.07103027 -82.22677734 133.79049805 -81.38574219 133.50146484 C-80.51594727 133.21223145 -79.64615234 132.92299805 -78.75 132.625 C-77.85700195 132.31900879 -76.96400391 132.01301758 -76.04394531 131.69775391 C-71.91823019 130.28981859 -67.78214733 128.9215472 -63.625 127.609375 C-51.08132582 123.97944604 -51.08132582 123.97944604 -42.2980957 114.95043945 C-39.00499117 108.04288932 -39.52338382 100.97796877 -39.77519798 93.52437401 C-39.8571309 90.92779267 -39.89697266 88.33361433 -39.92463684 85.73591614 C-40.00596303 78.35898692 -40.12421231 70.98484739 -40.35961914 63.61108398 C-41.35920152 30.84064027 -41.35920152 30.84064027 -35.66333008 23.82299805 C-32.42743516 20.82833526 -28.9256673 18.74786944 -24.93051147 16.91525269 C-22.36275348 15.69788235 -20.29699567 14.05020412 -18.11328125 12.24609375 C-16.84897683 11.30635703 -15.58222913 10.36989408 -14.3125 9.4375 C-13.01638036 8.47860314 -11.72079413 7.51898479 -10.42578125 6.55859375 C-9.83877441 6.12530762 -9.25176758 5.69202148 -8.64697266 5.24560547 C-7.12164374 4.09199917 -5.64230183 2.87826041 -4.16796875 1.66015625 C-2 0 -2 0 0 0 Z " fill="#FDFCFB" transform="translate(1462,649)"/>
<path d="M0 0 C-0.00682958 0.77800429 -0.01365915 1.55600859 -0.02069569 2.35758877 C-0.18296033 21.35729667 -0.27237839 40.35609867 -0.28240681 59.35651302 C-0.28898245 68.5454449 -0.31950016 77.7330922 -0.40795898 86.92163086 C-0.4850697 94.93788969 -0.51565172 102.9528029 -0.49218339 110.96942049 C-0.48135148 115.20818522 -0.49257596 119.44411027 -0.55968666 123.68241692 C-1.39418748 146.85466863 -1.39418748 146.85466863 9.45126629 166.58252621 C10.9505661 168.07226719 12.47299538 169.53867012 14 171 C14 171.66 14 172.32 14 173 C-5.47 173 -24.94 173 -45 173 C-43.54258199 170.08516398 -42.39611615 168.05379099 -40.43359375 165.58203125 C-39.94826172 164.96779297 -39.46292969 164.35355469 -38.96289062 163.72070312 C-38.45951172 163.09099609 -37.95613281 162.46128906 -37.4375 161.8125 C-36.93025391 161.17119141 -36.42300781 160.52988281 -35.90039062 159.86914062 C-32.18849649 155.18849649 -32.18849649 155.18849649 -31 154 C-30.88287239 152.58788112 -30.83380401 151.17004212 -30.81245422 149.75323486 C-30.79662796 148.83667618 -30.7808017 147.92011749 -30.76449585 146.9757843 C-30.75238068 145.96187119 -30.7402655 144.94795807 -30.7277832 143.90332031 C-30.71157425 142.84140976 -30.6953653 141.77949921 -30.67866516 140.68540955 C-30.53800113 130.84871547 -30.46023848 121.01110069 -30.39974689 111.17361832 C-30.35884827 104.56503932 -30.29867705 97.95794998 -30.19067383 91.35009766 C-30.08661058 84.96211175 -30.0322884 78.5754524 -30.01228905 72.1866684 C-29.99640496 69.75782573 -29.96328622 67.32902884 -29.91213417 64.90067291 C-29.18007018 49.07146398 -29.18007018 49.07146398 -35.81323242 35.28027344 C-37.52403538 33.50256503 -39.2520228 31.74116904 -41 30 C-43.38667297 26.85748291 -43.38667297 26.85748291 -45 24 C-44 21 -44 21 -41.75366211 19.59301758 C-40.28038452 18.87601685 -40.28038452 18.87601685 -38.77734375 18.14453125 C-37.68808594 17.60787842 -36.59882812 17.07122559 -35.4765625 16.51831055 C-33.72472656 15.67393433 -33.72472656 15.67393433 -31.9375 14.8125 C-29.56113886 13.64855806 -27.18483671 12.48449568 -24.80859375 11.3203125 C-23.06425049 10.47194824 -23.06425049 10.47194824 -21.28466797 9.60644531 C-18.43970379 8.21504764 -15.60832904 6.80212683 -12.78515625 5.3671875 C-12.04724854 4.99231201 -11.30934082 4.61743652 -10.54907227 4.23120117 C-9.21388134 3.55111763 -7.87968147 2.86908377 -6.54663086 2.18481445 C-2.22185853 0 -2.22185853 0 0 0 Z " fill="#FCFAF9" transform="translate(564,576)"/>
<path d="M0 0 C-0.00590778 0.77469415 -0.01181557 1.54938829 -0.01790237 2.34755802 C-0.15792531 21.2547925 -0.23091642 40.16121902 -0.23059464 59.06898594 C-0.23203174 68.21303733 -0.25560997 77.35600201 -0.33251953 86.49975586 C-0.39954883 94.47568486 -0.42380508 102.45044205 -0.39809489 110.42663044 C-0.38595437 114.64503498 -0.39428113 118.86102237 -0.4539566 123.07907295 C-1.54515558 144.18336104 -1.54515558 144.18336104 7.08691406 162.55834961 C8.99463816 164.46541709 10.96598237 166.22471036 13 168 C13 168.66 13 169.32 13 170 C13.66 170 14.32 170 15 170 C15 170.66 15 171.32 15 172 C-4.47 172 -23.94 172 -44 172 C-42.61751746 169.23503492 -41.41708553 167.0362634 -39.65234375 164.58203125 C-39.21212891 163.96779297 -38.77191406 163.35355469 -38.31835938 162.72070312 C-37.86267578 162.09099609 -37.40699219 161.46128906 -36.9375 160.8125 C-36.47794922 160.17119141 -36.01839844 159.52988281 -35.54492188 158.86914062 C-32.15472274 154.15472274 -32.15472274 154.15472274 -31 153 C-30.87649433 151.61654236 -30.8205312 150.22697457 -30.79226685 148.83830261 C-30.7721051 147.9402742 -30.75194336 147.04224579 -30.73117065 146.11700439 C-30.70592819 144.6266568 -30.70592819 144.6266568 -30.68017578 143.10620117 C-30.65914795 142.06528824 -30.63812012 141.02437531 -30.61645508 139.95191956 C-30.43248616 130.27796159 -30.32711775 120.60275631 -30.24431038 110.92745495 C-30.18795135 104.43401861 -30.10699293 97.94309039 -29.96435547 91.45092773 C-29.8268537 85.16654345 -29.75528633 78.88442197 -29.72765732 72.59862709 C-29.70636924 70.21729809 -29.66272589 67.83604672 -29.594944 65.45558739 C-29.13525101 48.51351652 -32.05970541 37.9426451 -42.82734489 24.65070057 C-44 23 -44 23 -44 21 C-3.92576419 0 -3.92576419 0 0 0 Z " fill="#FDFCFB" transform="translate(627,577)"/>
<path d="M0 0 C1.15113281 -0.03287109 2.30226563 -0.06574219 3.48828125 -0.09960938 C11.73456725 -0.15132497 17.82159268 1.1767263 23.95532227 6.91625977 C30.30033211 14.02828645 29.71048504 21.34187905 29.6875 30.375 C29.70361328 31.63763672 29.71972656 32.90027344 29.73632812 34.20117188 C29.73697266 35.42255859 29.73761719 36.64394531 29.73828125 37.90234375 C29.74126221 39.012146 29.74424316 40.12194824 29.74731445 41.26538086 C29.13718368 46.46369506 27.2484544 49.60202188 23.5 53.1875 C16.98540794 57.87800628 11.35241722 57.8030862 3.5625 57.8125 C1.97985352 57.84923828 1.97985352 57.84923828 0.36523438 57.88671875 C-7.36357349 57.91561149 -12.49012644 56.55861113 -18.6484375 51.91015625 C-19.09445312 51.44480469 -19.54046875 50.97945312 -20 50.5 C-20.46148437 50.03722656 -20.92296875 49.57445312 -21.3984375 49.09765625 C-25.97629019 42.90151806 -24.99279239 35.38543238 -25 28.0625 C-25.03673828 26.10957031 -25.03673828 26.10957031 -25.07421875 24.1171875 C-25.09587892 17.04153046 -25.05775847 12.10203048 -20.625 6.4375 C-13.74865785 0.2320205 -8.97791299 0.04434754 0 0 Z " fill="#CDA586" transform="translate(450.625,663.5625)"/>
<path d="M0 0 C0.66 0 1.32 0 2 0 C2.05607422 1.73056641 2.05607422 1.73056641 2.11328125 3.49609375 C2.53785881 14.5558214 3.52572096 25.44681026 4.98364258 36.41967773 C5.11407959 37.42071533 5.2445166 38.42175293 5.37890625 39.453125 C5.4982251 40.33129883 5.61754395 41.20947266 5.74047852 42.11425781 C6.06842114 45.760807 6.03890005 49.33899197 6 53 C7.07032471 52.96970703 8.14064941 52.93941406 9.2434082 52.90820312 C30.50040774 52.31277526 51.73296987 51.81695485 73 52 C72.67 52.66 72.34 53.32 72 54 C69.50317383 54.5625 69.50317383 54.5625 66.20703125 55 C64.42522461 55.2475 64.42522461 55.2475 62.60742188 55.5 C60.72893555 55.7475 60.72893555 55.7475 58.8125 56 C56.35998448 56.32819863 53.90812828 56.6613703 51.45703125 57 C50.36366455 57.144375 49.27029785 57.28875 48.14379883 57.4375 C44.94902476 58.00912068 42.06157016 58.93742525 39 60 C36.75784299 60.38254812 34.50651853 60.71410625 32.25 61 C27.18132575 61.67831573 22.20227872 62.50836463 17.19921875 63.55859375 C14.14608183 64.17139032 11.08725228 64.59731492 8 65 C8.02284058 66.0041394 8.02284058 66.0041394 8.04614258 67.02856445 C8.16858279 77.33936307 7.51525215 87.58147021 6.88882446 97.86880493 C5.48512146 121.00788191 4.34658987 144.15459578 3.3125 167.3125 C3.2791946 168.05721432 3.24588921 168.80192863 3.21157455 169.56921005 C2.80282164 178.71259295 2.39870942 187.85617306 2 197 C1.67 197 1.34 197 1 197 C0.97716446 196.38184921 0.95432892 195.76369843 0.93080139 195.1268158 C0.6899968 188.62016894 0.4460735 182.11364402 0.20043945 175.60717773 C0.10949038 173.18761057 0.01930358 170.76801461 -0.07006836 168.34838867 C-0.60928964 152.77347483 -0.60928964 152.77347483 -1.53515625 137.21875 C-2.32352408 126.35911883 -2.36170564 115.46143448 -2.55224609 104.57836914 C-2.60426435 101.67847074 -2.66133172 98.77870199 -2.71875 95.87890625 C-2.73232544 95.00480606 -2.74590088 94.13070587 -2.7598877 93.2301178 C-2.86343421 88.07746257 -3.31137975 83.10666464 -4 78 C-4.06349798 75.5007197 -4.08653818 72.99997124 -4.0625 70.5 C-4.05347656 69.2728125 -4.04445313 68.045625 -4.03515625 66.78125 C-4.02355469 65.8634375 -4.01195312 64.945625 -4 64 C-5.70929688 64.04060547 -5.70929688 64.04060547 -7.453125 64.08203125 C-11.98756335 64.0790402 -16.29260386 63.47378738 -20.75 62.6875 C-21.54003418 62.55287354 -22.33006836 62.41824707 -23.14404297 62.27954102 C-28.48452167 61.34264358 -33.68144032 60.09367267 -38.91796875 58.6875 C-43.39832824 57.68807887 -47.9179191 57.18801455 -52.48291016 56.73413086 C-56.30282815 56.32919087 -59.51101581 55.62012561 -63 54 C-63 53.67 -63 53.34 -63 53 C-53.43 53 -43.86 53 -34 53 C-37.5475 52.71125 -41.095 52.4225 -44.75 52.125 C-52.05735574 51.50902493 -59.26797025 50.79583724 -66.48046875 49.43359375 C-69.98313165 48.8308099 -73.49443205 48.57317592 -77.0390625 48.34375 C-79 48 -79 48 -81 46 C-79.44539062 45.90912109 -79.44539062 45.90912109 -77.859375 45.81640625 C-76.48957127 45.73196629 -75.11978025 45.64732003 -73.75 45.5625 C-73.06808594 45.52318359 -72.38617187 45.48386719 -71.68359375 45.44335938 C-67.84353258 45.21736727 -67.84353258 45.21736727 -64.07592773 44.49511719 C-59.90712728 43.50084137 -55.5782604 43.72979108 -51.3125 43.6875 C-49.87874023 43.64399414 -49.87874023 43.64399414 -48.41601562 43.59960938 C-41.63974996 43.53956067 -36.96759211 44.88585661 -31 48 C-21.67917167 51.8991513 -12.97167386 52.74691183 -3 53 C-3.020625 51.824375 -3.04125 50.64875 -3.0625 49.4375 C-3.10880046 46.79837385 -2.91328755 44.40741245 -2.52954102 41.78491211 C-1.93275674 37.51937657 -1.67346335 33.30253715 -1.46484375 29.00390625 C-1.42186661 28.17036118 -1.37888947 27.3368161 -1.33460999 26.47801208 C-1.19925817 23.83964991 -1.06830935 21.2010909 -0.9375 18.5625 C-0.84599498 16.76365701 -0.75420101 14.96482868 -0.66210938 13.16601562 C-0.43806439 8.77750638 -0.21796545 4.38881523 0 0 Z " fill="#CDA98D" transform="translate(819,237)"/>
<path d="M0 0 C0 3 0 3 -1.28515625 4.5078125 C-2.16494141 5.30832031 -2.16494141 5.30832031 -3.0625 6.125 C-5.7056437 8.65735325 -8.03656927 11.20948834 -10.25 14.125 C-29.80995965 39.86871371 -29.80995965 39.86871371 -39 46 C-41.89453125 46.390625 -41.89453125 46.390625 -44.8125 46.25 C-45.78832031 46.21390625 -46.76414062 46.1778125 -47.76953125 46.140625 C-48.50558594 46.09421875 -49.24164062 46.0478125 -50 46 C-47.34545483 42.47891365 -44.66635763 39.761153 -41.1875 37.0625 C-35.65365996 32.63394437 -30.50091669 27.88061097 -25.34521484 23.02050781 C-21.64403951 19.53247926 -17.90664393 16.11411385 -14.05078125 12.796875 C-9.28635201 8.62232747 -4.65768887 4.29283658 0 0 Z " fill="#CAA486" transform="translate(901,227)"/>
<path d="M0 0 C0.495 4.95 0.495 4.95 1 10 C-1.87469241 11.66719901 -4.74973086 13.33379608 -7.625 15 C-8.49294189 15.50329834 -9.36088379 16.00659668 -10.25512695 16.52514648 C-14.10017221 18.75245712 -17.94574457 20.97759437 -21.81640625 23.16015625 C-28.94503255 27.18291524 -35.90362063 31.38042162 -42.76049805 35.85180664 C-47.67494732 39 -47.67494732 39 -51 39 C-50.47792969 38.59910156 -49.95585938 38.19820313 -49.41796875 37.78515625 C-44.11876199 33.69242389 -38.91619404 29.49565867 -33.7421875 25.24609375 C-26.5435612 19.34978304 -19.23227438 13.5960071 -11.90893555 7.85595703 C-11.344729 7.41364746 -10.78052246 6.97133789 -10.19921875 6.515625 C-9.65700684 6.09216797 -9.11479492 5.66871094 -8.55615234 5.23242188 C-7.08740333 4.06922058 -5.64618185 2.87150264 -4.20703125 1.671875 C-2 0 -2 0 0 0 Z " fill="#CCA78B" transform="translate(794,317)"/>
<path d="M0 0 C0.95583984 -0.02900391 1.91167969 -0.05800781 2.89648438 -0.08789062 C8.79627389 -0.14017233 13.09613008 0.62085163 18.35083008 3.35083008 C20.32722143 4.31971689 22.16572111 4.85506842 24.3125 5.3125 C24.3125 5.9725 24.3125 6.6325 24.3125 7.3125 C14.60648389 12.16550805 -4.69077972 7.61004842 -14.81640625 5.78125 C-18.44223293 5.1892783 -22.06215419 4.89342853 -25.7265625 4.65625 C-27.6875 4.3125 -27.6875 4.3125 -29.6875 2.3125 C-28.13289062 2.22162109 -28.13289062 2.22162109 -26.546875 2.12890625 C-25.17707127 2.04446629 -23.80728025 1.95982003 -22.4375 1.875 C-21.75558594 1.83568359 -21.07367187 1.79636719 -20.37109375 1.75585938 C-16.53103258 1.52986727 -16.53103258 1.52986727 -12.76342773 0.80761719 C-8.59462728 -0.18665863 -4.2657604 0.04229108 0 0 Z " fill="#C9A387" transform="translate(767.6875,280.6875)"/>
<path d="M0 0 C5.97767664 2.15588338 11.46463729 5.37308277 17.05078125 8.3671875 C20.9821738 10.45980275 24.83787593 12.39977485 29 14 C32.3125 16 32.3125 16 35 18 C35 18.66 35 19.32 35 20 C22.15730586 15.99981658 11.50852923 10.36242115 1 2 C0.67 1.34 0.34 0.68 0 0 Z " fill="#D0AC91" transform="translate(757,235)"/>
<path d="M0 0 C0.66 0.33 1.32 0.66 2 1 C1.63537472 3.59366184 1.31548471 4.72871844 -0.70239258 6.46386719 C-1.42579834 6.90375977 -2.1492041 7.34365234 -2.89453125 7.796875 C-3.68537109 8.28027344 -4.47621094 8.76367188 -5.29101562 9.26171875 C-6.12310547 9.75285156 -6.95519531 10.24398438 -7.8125 10.75 C-8.63298828 11.25660156 -9.45347656 11.76320313 -10.29882812 12.28515625 C-16.47187711 16 -16.47187711 16 -21 16 C-21.33 15.01 -21.66 14.02 -22 13 C-21.44014404 12.67725098 -20.88028809 12.35450195 -20.3034668 12.02197266 C-17.76421153 10.55735192 -15.22584745 9.09119347 -12.6875 7.625 C-11.80642578 7.11710937 -10.92535156 6.60921875 -10.01757812 6.0859375 C-9.17001953 5.59609375 -8.32246094 5.10625 -7.44921875 4.6015625 C-6.66893311 4.15119629 -5.88864746 3.70083008 -5.0847168 3.23681641 C-3.35675377 2.21165413 -1.67174081 1.11449387 0 0 Z " fill="#F8F3F0" transform="translate(788,330)"/>
<path d="M0 0 C0.33 0 0.66 0 1 0 C0.48036401 16.67513564 -0.07886675 33.34120722 -1 50 C-1.33 50 -1.66 50 -2 50 C-2.68735822 39.48096435 -3.12103239 28.98009394 -3.1875 18.4375 C-3.20039062 17.43259521 -3.21328125 16.42769043 -3.2265625 15.39233398 C-3.22785156 14.45719971 -3.22914063 13.52206543 -3.23046875 12.55859375 C-3.23457764 11.72642334 -3.23868652 10.89425293 -3.24291992 10.03686523 C-3 8 -3 8 -1 6 C-0.60235737 4.01178687 -0.26224651 2.01055661 0 0 Z " fill="#D5B9A6" transform="translate(822,384)"/>
<path d="M0 0 C3.72874806 2.79656104 6.60139644 5.73133285 9.5 9.375 C10.27214844 10.33792969 11.04429687 11.30085938 11.83984375 12.29296875 C12.55269531 13.18628906 13.26554688 14.07960938 14 15 C15.65666531 17.00865887 17.32784744 19.00420501 19 21 C18.34 21.99 17.68 22.98 17 24 C16.67 24.66 16.34 25.32 16 26 C12.43497926 22.20423358 9.76428065 18.91178955 7.921875 13.96875 C6.2444226 10.38639402 3.77048798 7.30668458 1.42578125 4.13671875 C0 2 0 2 0 0 Z " fill="#F4ECE6" transform="translate(889,332)"/>
<path d="M0 0 C0 3 0 3 -1.28515625 4.5078125 C-1.87167969 5.04148438 -2.45820312 5.57515625 -3.0625 6.125 C-7.19664474 10.06509305 -10.59109117 14.43061157 -14 19 C-14.99 18.01 -15.98 17.02 -17 16 C-12.73502369 11.61507124 -8.34080571 7.46548545 -3.69921875 3.48046875 C-2.42270555 2.36828828 -1.19716986 1.19716986 0 0 Z " fill="#D0AD90" transform="translate(901,227)"/>
<path d="M0 0 C11.88 0 23.76 0 36 0 C36 0.33 36 0.66 36 1 C25.44 1 14.88 1 4 1 C4 2.65 4 4.3 4 6 C2.62437146 4.71034824 1.29233607 3.37310707 0 2 C0 1.34 0 0.68 0 0 Z " fill="#F7F0EB" transform="translate(282,653)"/>
<path d="M0 0 C3.0129313 0.61931315 5.25036213 1.59028346 7.85546875 3.21484375 C8.55994141 3.65376953 9.26441406 4.09269531 9.99023438 4.54492188 C10.71533203 5.00447266 11.44042969 5.46402344 12.1875 5.9375 C12.92419922 6.39318359 13.66089844 6.84886719 14.41992188 7.31835938 C19.87206573 10.74413146 19.87206573 10.74413146 21 13 C16.15984684 11.23465356 11.7164873 8.80463275 7.1875 6.375 C6.39923828 5.95476562 5.61097656 5.53453125 4.79882812 5.1015625 C2.86464674 4.0699991 0.93176017 3.03608828 -1 2 C-0.67 1.34 -0.34 0.68 0 0 Z " fill="#F3E9E0" transform="translate(765,237)"/>
<path d="M0 0 C0.66 0.33 1.32 0.66 2 1 C1.38511719 1.74443359 1.38511719 1.74443359 0.7578125 2.50390625 C-2.76054568 6.93973103 -4.84356739 10.44912349 -6 16 C-6.66 16 -7.32 16 -8 16 C-7.86660043 8.52962434 -5.25345294 5.15743683 0 0 Z " fill="#D3B299" transform="translate(498,726)"/>
<path d="M0 0 C0.66 0.33 1.32 0.66 2 1 C0.60519553 5.18441341 -2.36739247 6.50674116 -5.9375 8.75 C-6.58396484 9.17410156 -7.23042969 9.59820312 -7.89648438 10.03515625 C-9.55538613 11.09285685 -11.27458455 12.05468148 -13 13 C-13.66 12.67 -14.32 12.34 -15 12 C-14.41992188 11.55269531 -13.83984375 11.10539062 -13.2421875 10.64453125 C-8.7576236 7.1738044 -4.32898614 3.66298828 0 0 Z " fill="#D8BBA2" transform="translate(758,344)"/>
<path d="M0 0 C1.52227467 0.32668786 3.0436541 0.65772487 4.5625 1 C4.5625 1.33 4.5625 1.66 4.5625 2 C-2.0375 2.33 -8.6375 2.66 -15.4375 3 C-15.4375 2.34 -15.4375 1.68 -15.4375 1 C-10.45483441 -2.32177706 -5.63044332 -1.11651851 0 0 Z " fill="#F5EEE9" transform="translate(763.4375,287)"/>
<path d="M0 0 C0.66 0.33 1.32 0.66 2 1 C2 1.99 2 2.98 2 4 C-0.70368888 6.51056825 -2.30698604 7.07674651 -6 8 C-4.02 5.36 -2.04 2.72 0 0 Z " fill="#CEAA8D" transform="translate(764,339)"/>
<path d="M0 0 C3.7910119 1.44950455 7.3874638 3.15172566 11 5 C10.67 5.99 10.34 6.98 10 8 C8.51714758 7.04737966 7.03881799 6.08771595 5.5625 5.125 C4.73878906 4.59132812 3.91507813 4.05765625 3.06640625 3.5078125 C1 2 1 2 0 0 Z " fill="#D6B6A1" transform="translate(757,235)"/>
<path d="M0 0 C0 0.66 0 1.32 0 2 C-0.66 2 -1.32 2 -2 2 C-2 2.66 -2 3.32 -2 4 C-3.98 4 -5.96 4 -8 4 C-5.29881977 1.17603885 -4.05589853 0 0 0 Z " fill="#D1AA8E" transform="translate(1060,666)"/>
<path d="M0 0 C0.66 0.33 1.32 0.66 2 1 C0.35 2.98 -1.3 4.96 -3 7 C-3.66 6.67 -4.32 6.34 -5 6 C-3.35 4.02 -1.7 2.04 0 0 Z " fill="#D0AB8F" transform="translate(498,726)"/>
</svg>
